<?xml version="1.0" encoding="UTF-8" standalone="no"?>
<!-- Created with Inkscape (http://www.inkscape.org/) -->

<svg
   xmlns:dc="http://purl.org/dc/elements/1.1/"
   xmlns:cc="http://creativecommons.org/ns#"
   xmlns:rdf="http://www.w3.org/1999/02/22-rdf-syntax-ns#"
   xmlns:svg="http://www.w3.org/2000/svg"
   xmlns="http://www.w3.org/2000/svg"
   xmlns:sodipodi="http://sodipodi.sourceforge.net/DTD/sodipodi-0.dtd"
   xmlns:inkscape="http://www.inkscape.org/namespaces/inkscape"
   width="100mm"
   height="100mm"
   viewBox="0 0 100 100"
   version="1.1"
   id="svg8"
   inkscape:version="0.92.0 r15299"
   sodipodi:docname="logo-vector.svg">
  <defs
     id="defs2">
    <linearGradient
       id="linearGradient6015">
      <stop
         style="stop-color:#000000;stop-opacity:1;"
         offset="0"
         id="stop6013" />
    </linearGradient>
  </defs>
  <sodipodi:namedview
     id="base"
     pagecolor="#ffffff"
     bordercolor="#666666"
     borderopacity="1.0"
     inkscape:pageopacity="0.0"
     inkscape:pageshadow="2"
     inkscape:zoom="0.98994949"
     inkscape:cx="274.96504"
     inkscape:cy="48.61979"
     inkscape:document-units="mm"
     inkscape:current-layer="layer1"
     showgrid="false"
     inkscape:window-width="1920"
     inkscape:window-height="1018"
     inkscape:window-x="-8"
     inkscape:window-y="-8"
     inkscape:window-maximized="1" />
  <metadata
     id="metadata5">
    <rdf:RDF>
      <cc:Work
         rdf:about="">
        <dc:format>image/svg+xml</dc:format>
        <dc:type
           rdf:resource="http://purl.org/dc/dcmitype/StillImage" />
        <dc:title></dc:title>
      </cc:Work>
    </rdf:RDF>
  </metadata>
  <g
     inkscape:label="Layer 1"
     inkscape:groupmode="layer"
     id="layer1"
     transform="translate(0,-197)">
    <path
       style="fill:#323232;fill-opacity:1;stroke:#000000;stroke-width:0.26458332px;stroke-linecap:butt;stroke-linejoin:miter;stroke-opacity:1"
       d="m 51.447665,211.03814 -16.725436,1.5119 16.252966,1.98438 20.12723,-1.22843 z"
       id="path23"
       inkscape:connector-curvature="0" />
    <path
       style="fill:#323232;fill-opacity:1;stroke-width:0.0965762"
       d="m 54.963465,270.46288 c -6.05398,-0.66194 -11.693077,-3.06743 -16.293888,-6.95057 -1.094917,-0.92412 -2.461508,-2.2647 -2.464099,-2.4172 -0.0011,-0.062 3.428011,-11.35011 7.620138,-25.08481 l 7.622049,-24.97216 0.60085,0.0331 c 0.39212,0.0216 0.60084,0.0749 0.60084,0.15339 0,0.0939 -9.081544,44.69129 -9.440099,46.3582 l -0.08675,0.4033 1.479756,1.28589 c 3.612313,3.13904 7.277283,5.72279 9.578653,6.75282 0.8751,0.39167 2.22227,0.83281 3.57112,1.16941 3.23022,0.80609 7.24908,0.76539 9.71238,-0.0983 2.28791,-0.80225 3.76422,-2.2539 4.22309,-4.15258 l 0.13993,-0.57899 -0.0298,1.08575 c -0.0346,1.26116 -0.17714,1.76648 -0.76769,2.72146 -1.35453,2.19043 -4.33304,3.55979 -9.12017,4.19298 -1.63414,0.21614 -5.38351,0.26924 -6.94631,0.0984 z"
       id="path25"
       inkscape:connector-curvature="0" />
    <path
       style="fill:#000000;stroke-width:0.09449405"
       d="m 51.447665,211.03814 c 0.0246,-0.065 0.54914,-1.70474 1.1657,-3.64393 0.61656,-1.9392 1.13496,-3.48398 1.15201,-3.43285 0.0263,0.0788 -1.3132,6.54765 -1.45558,7.02953 -0.0372,0.12603 -0.15091,0.16536 -0.47783,0.16536 -0.30401,0 -0.41596,-0.0344 -0.3843,-0.11811 z"
       id="path29"
       inkscape:connector-curvature="0" />
    <path
       style="fill:#000000;stroke-width:0.12626907"
       d=""
       id="path33"
       inkscape:connector-curvature="0"
       transform="scale(0.26458333)" />
    <path
       style="fill:#60f6ff;fill-opacity:1;stroke:#323232;stroke-width:0.26458332px;stroke-linecap:butt;stroke-linejoin:miter;stroke-opacity:1"
       d="m 52.925885,208.63539 11.89349,-1.87089 -11.35895,-2.53906 c 0,0 2.53906,-0.4009 -0.53454,4.40995 z"
       id="path4522"
       inkscape:connector-curvature="0" />
    <path
       style="fill:#60ffff;fill-opacity:1;stroke:none;stroke-width:0.25653911px;stroke-linecap:butt;stroke-linejoin:miter;stroke-opacity:1"
       d="m 50.975195,214.53442 c 0,0 -25.756507,-0.64733 -29.480207,17.3476 -4.675987,22.5969 23.33001,30.59273 23.33001,30.59273 0,0 -16.965749,-14.00053 -12.951327,-31.48223 2.964415,-12.90922 19.101524,-16.4581 19.101524,-16.4581 z"
       id="path4520-6"
       inkscape:connector-curvature="0"
       sodipodi:nodetypes="cscsc" />
    <path
       style="fill:#60ff29;fill-opacity:1;stroke:none;stroke-width:0.25653911px;stroke-linecap:butt;stroke-linejoin:miter;stroke-opacity:1"
       d="m 50.975195,214.53442 c 0,0 -20.860832,0.21781 -24.584532,18.21274 -4.675987,22.5969 18.434335,29.72759 18.434335,29.72759 0,0 -11.802805,-13.66993 -7.788383,-31.15163 2.964415,-12.90921 13.93858,-16.7887 13.93858,-16.7887 z"
       id="path4520-6-3"
       inkscape:connector-curvature="0"
       sodipodi:nodetypes="cscsc" />
    <path
       style="fill:#ffe029;fill-opacity:1;stroke:none;stroke-width:0.25653911px;stroke-linecap:butt;stroke-linejoin:miter;stroke-opacity:1"
       d="m 50.975195,214.53442 c 0,0 -15.579798,0.81265 -19.1892,18.64647 -4.537467,22.41933 13.039003,29.29386 13.039003,29.29386 0,0 -11.752863,-12.96892 -6.802998,-31.78698 3.36938,-12.80948 12.953195,-16.15335 12.953195,-16.15335 z"
       id="path4520-6-3-7"
       inkscape:connector-curvature="0"
       sodipodi:nodetypes="cscsc" />
    <path
       style="fill:none;stroke:#323232;stroke-width:0.26458332px;stroke-linecap:butt;stroke-linejoin:miter;stroke-opacity:1"
       d="m 50.975195,214.53441 c 0,0 -23.896759,-0.74683 -28.990428,15.58207 -7.421144,23.79014 22.84023,32.35827 22.84023,32.35827 0,0 -9.581762,-10.42758 -7.626688,-27.25559 1.859813,-16.00807 13.776886,-20.68475 13.776886,-20.68475 z"
       id="path6081"
       inkscape:connector-curvature="0"
       sodipodi:nodetypes="cscsc" />
    <path
       style="fill:#323232;fill-opacity:1;stroke:none;stroke-width:0.26458332px;stroke-linecap:butt;stroke-linejoin:miter;stroke-opacity:1"
       d="m 20.689784,274.69674 c 0,0 -4.142676,1.87089 -4.009043,6.54811 0.133635,4.67721 6.548104,3.0736 6.548104,3.0736 l -0.400905,-2.00453 c 0,0 -3.207234,1.60362 -3.207234,-2.00452 0,-3.60814 1.603618,-3.74177 1.603618,-3.74177 z"
       id="path6087"
       inkscape:connector-curvature="0" />
    <path
       style="fill:#323232;fill-opacity:1;stroke:#323232;stroke-width:0.26458332;stroke-opacity:1"
       d="m 27.772508,275.36477 a 3.3408688,4.6103992 0 0 0 -3.340881,4.61057 3.3408688,4.6103992 0 0 0 3.340881,4.61057 3.3408688,4.6103992 0 0 0 3.340883,-4.61057 3.3408688,4.6103992 0 0 0 -3.340883,-4.61057 z m -0.06666,2.6727 a 1.8040693,2.1381562 0 0 1 1.804024,2.13837 1.8040693,2.1381562 0 0 1 -1.804024,2.13786 1.8040693,2.1381562 0 0 1 -1.804541,-2.13786 1.8040693,2.1381562 0 0 1 1.804541,-2.13837 z"
       id="path6089"
       inkscape:connector-curvature="0" />
    <path
       style="fill:#323232;fill-opacity:1;stroke:none;stroke-width:0.26458332px;stroke-linecap:butt;stroke-linejoin:miter;stroke-opacity:1"
       d="m 38.730479,284.85298 -5.211758,-0.26727 -0.668173,-9.35443 2.672696,0.13363 -0.53454,7.21628 3.741775,-0.4009 z"
       id="path6094"
       inkscape:connector-curvature="0" />
    <path
       style="fill:#323232;fill-opacity:1;stroke:#323232;stroke-width:0.26458332;stroke-opacity:1"
       d="m 43.4077,275.43157 a 3.3408689,4.6103992 0 0 0 -3.340883,4.61057 3.3408689,4.6103992 0 0 0 3.340883,4.61057 3.3408689,4.6103992 0 0 0 3.34088,-4.61057 3.3408689,4.6103992 0 0 0 -3.34088,-4.61057 z m -0.0667,2.6727 a 1.8040693,2.1381562 0 0 1 1.80402,2.13837 1.8040693,2.1381562 0 0 1 -1.80402,2.13786 1.8040693,2.1381562 0 0 1 -1.804543,-2.13786 1.8040693,2.1381562 0 0 1 1.804543,-2.13837 z"
       id="path6089-1"
       inkscape:connector-curvature="0" />
    <path
       id="path6142-3"
       style="fill:#323232;fill-opacity:1;stroke:none;stroke-width:0.2579523px;stroke-linecap:butt;stroke-linejoin:miter;stroke-opacity:1"
       d="m 52.21922,284.37474 1.06097,-9.5e-4 0.45863,-6.9486 2.80715,0.63416 0.89196,-2.66726 -5.01342,-0.0903 m -0.20529,9.07312 -1.01814,-9.5e-4 -0.39181,-7.0121 -2.77374,0.63415 -0.99219,-2.60375 5.38093,-0.0903"
       inkscape:connector-curvature="0"
       sodipodi:nodetypes="cccccccccccc" />
    <path
       id="path6175"
       style="fill:#323232;fill-opacity:1;stroke:none;stroke-width:0.26458332px;stroke-linecap:butt;stroke-linejoin:miter;stroke-opacity:1"
       d="m 64.67173,275.49855 -1.26953,0.33409 c 0,0 -0.40091,2.73951 -0.0668,4.54358 0.33409,1.80407 1.06908,3.40768 1.5368,3.87541 0.46772,0.46772 3.60814,-0.735 3.60814,-0.735 l -0.53454,-1.33634 c 0,0 -1.5368,0.60135 -2.40543,0 -0.86862,-0.60136 -0.86862,-6.68174 -0.86862,-6.68174 z m -3.40769,-0.20062 a 3.3408689,4.6103992 0 0 0 -3.34088,4.61057 3.3408689,4.6103992 0 0 0 3.34088,4.61057 3.3408689,4.6103992 0 0 0 3.34088,-4.61057 3.3408689,4.6103992 0 0 0 -3.34088,-4.61057 z m -0.0667,2.6727 a 1.8040693,2.1381562 0 0 1 1.80403,2.13837 1.8040693,2.1381562 0 0 1 -1.80403,2.13786 1.8040693,2.1381562 0 0 1 -1.80454,-2.13786 1.8040693,2.1381562 0 0 1 1.80454,-2.13837 z"
       inkscape:connector-curvature="0" />
    <path
       style="fill:#323232;fill-opacity:1;stroke:none;stroke-width:0.2557191px;stroke-linecap:butt;stroke-linejoin:miter;stroke-opacity:1"
       d="m 74.430654,274.88197 -0.02332,1.23188 c 0,0 -2.767273,-0.3698 -3.235972,1.96675 0.722735,2.0162 3.705054,0.3094 4.125754,3.61575 0.282952,3.11761 -5.740681,2.63656 -5.740681,2.63656 l -0.107918,-1.277 c 0,0 3.611915,0.19317 3.226047,-1.24311 -0.385778,-1.43618 -4.052318,-0.53528 -4.099473,-3.41286 -0.0472,-2.87755 2.913716,-3.15685 2.913716,-3.15685 z"
       id="path6177"
       inkscape:connector-curvature="0"
       sodipodi:nodetypes="cccccccccc" />
    <path
       style="fill:#323232;fill-opacity:1;stroke:none;stroke-width:0.30444992px;stroke-linecap:butt;stroke-linejoin:miter;stroke-opacity:1"
       d="m 78.694733,284.24626 h -1.613328 l -0.509466,-9.39832 h 2.547357 l -0.254733,4.03779 3.056825,-4.03779 2.632274,0.48732 -4.299705,4.23812 3.620421,4.3248 -2.547372,0.20885 -2.462443,-3.55048 z"
       id="path6185"
       inkscape:connector-curvature="0"
       sodipodi:nodetypes="cccccccccccc" />
  </g>
</svg>
